@startuml Order State Diagram

skinparam backgroundColor White
skinparam state {
  BackgroundColor #E8E8E8
  BorderColor #888888
  FontColor Black
  FontSize 14
}
skinparam ArrowColor #555555
skinparam ArrowFontSize 12

title Order - State Diagram

[*] --> PENDING : Create

PENDING --> COMPLETED : Payment Success
PENDING --> CANCELLED : Payment Failed

COMPLETED --> [*]
CANCELLED --> [*]

@enduml
